TITLE ""
FILE "1Q_t_1520-1528.mp3" MP3
  TRACK 01 AUDIO
    TITLE "1Q_t_1520-1528_01"
    INDEX 01 00:00:00
  TRACK 02 AUDIO
    TITLE "1Q_t_1520-1528_02"
    INDEX 01 00:01:02
  TRACK 03 AUDIO
    TITLE "1Q_t_1520-1528_03"
    INDEX 01 00:01:12
  TRACK 04 AUDIO
    TITLE "1Q_t_1520-1528_04"
    INDEX 01 00:04:08
  TRACK 05 AUDIO
    TITLE "1Q_t_1520-1528_05"
    INDEX 01 00:04:14
  TRACK 06 AUDIO
    TITLE "1Q_t_1520-1528_06"
    INDEX 01 00:09:01
  TRACK 07 AUDIO
    TITLE "1Q_t_1520-1528_07"
    INDEX 01 00:09:46
  TRACK 08 AUDIO
    TITLE "1Q_t_1520-1528_08"
    INDEX 01 00:10:54
  TRACK 09 AUDIO
    TITLE "1Q_t_1520-1528_09"
    INDEX 01 00:11:22
  TRACK 10 AUDIO
    TITLE "1Q_t_1520-1528_10"
    INDEX 01 00:12:33
  TRACK 11 AUDIO
    TITLE "1Q_t_1520-1528_11"
    INDEX 01 00:12:41
  TRACK 12 AUDIO
    TITLE "1Q_t_1520-1528_12"
    INDEX 01 00:13:54
  TRACK 13 AUDIO
    TITLE "1Q_t_1520-1528_13"
    INDEX 01 00:13:62
  TRACK 14 AUDIO
    TITLE "1Q_t_1520-1528_14"
    INDEX 01 00:17:52
  TRACK 15 AUDIO
    TITLE "1Q_t_1520-1528_15"
    INDEX 01 00:18:24
  TRACK 16 AUDIO
    TITLE "1Q_t_1520-1528_16"
    INDEX 01 00:19:35
  TRACK 17 AUDIO
    TITLE "1Q_t_1520-1528_17"
    INDEX 01 00:19:41
  TRACK 18 AUDIO
    TITLE "1Q_t_1520-1528_18"
    INDEX 01 00:22:37
  TRACK 19 AUDIO
    TITLE "1Q_t_1520-1528_19"
    INDEX 01 00:22:45
  TRACK 20 AUDIO
    TITLE "1Q_t_1520-1528_20"
    INDEX 01 00:27:05
  TRACK 21 AUDIO
    TITLE "1Q_t_1520-1528_21"
    INDEX 01 00:27:52
  TRACK 22 AUDIO
    TITLE "1Q_t_1520-1528_22"
    INDEX 01 00:29:02
  TRACK 23 AUDIO
    TITLE "1Q_t_1520-1528_23"
    INDEX 01 00:29:10
  TRACK 24 AUDIO
    TITLE "1Q_t_1520-1528_24"
    INDEX 01 00:30:13
  TRACK 25 AUDIO
    TITLE "1Q_t_1520-1528_25"
    INDEX 01 00:30:19
  TRACK 26 AUDIO
    TITLE "1Q_t_1520-1528_26"
    INDEX 01 00:34:43
  TRACK 27 AUDIO
    TITLE "1Q_t_1520-1528_27"
    INDEX 01 00:35:11
  TRACK 28 AUDIO
    TITLE "1Q_t_1520-1528_28"
    INDEX 01 00:36:18
  TRACK 29 AUDIO
    TITLE "1Q_t_1520-1528_29"
    INDEX 01 00:36:30
  TRACK 30 AUDIO
    TITLE "1Q_t_1520-1528_30"
    INDEX 01 00:37:39
  TRACK 31 AUDIO
    TITLE "1Q_t_1520-1528_31"
    INDEX 01 00:37:45
  TRACK 32 AUDIO
    TITLE "1Q_t_1520-1528_32"
    INDEX 01 00:42:07
  TRACK 33 AUDIO
    TITLE "1Q_t_1520-1528_33"
    INDEX 01 00:42:52
  TRACK 34 AUDIO
    TITLE "1Q_t_1520-1528_34"
    INDEX 01 00:43:51
  TRACK 35 AUDIO
    TITLE "1Q_t_1520-1528_35"
    INDEX 01 00:43:61
  TRACK 36 AUDIO
    TITLE "1Q_t_1520-1528_36"
    INDEX 01 00:46:40
  TRACK 37 AUDIO
    TITLE "1Q_t_1520-1528_37"
    INDEX 01 00:46:46
  TRACK 38 AUDIO
    TITLE "1Q_t_1520-1528_38"
    INDEX 01 00:51:53
  TRACK 39 AUDIO
    TITLE "1Q_t_1520-1528_39"
    INDEX 01 00:52:21
  TRACK 40 AUDIO
    TITLE "1Q_t_1520-1528_40"
    INDEX 01 00:53:34
  TRACK 41 AUDIO
    TITLE "1Q_t_1520-1528_41"
    INDEX 01 00:53:42
  TRACK 42 AUDIO
    TITLE "1Q_t_1520-1528_42"
    INDEX 01 00:55:45
  TRACK 43 AUDIO
    TITLE "1Q_t_1520-1528_43"
    INDEX 01 00:55:49
  TRACK 44 AUDIO
    TITLE "1Q_t_1520-1528_44"
    INDEX 01 00:59:19
  TRACK 45 AUDIO
    TITLE "1Q_t_1520-1528_45"
    INDEX 01 00:59:62
  TRACK 46 AUDIO
    TITLE "1Q_t_1520-1528_46"
    INDEX 01 01:01:04
  TRACK 47 AUDIO
    TITLE "1Q_t_1520-1528_47"
    INDEX 01 01:01:12
  TRACK 48 AUDIO
    TITLE "1Q_t_1520-1528_48"
    INDEX 01 01:04:24
  TRACK 49 AUDIO
    TITLE "1Q_t_1520-1528_49"
    INDEX 01 01:04:32
  TRACK 50 AUDIO
    TITLE "1Q_t_1520-1528_50"
    INDEX 01 01:08:24
  TRACK 51 AUDIO
    TITLE "1Q_t_1520-1528_51"
    INDEX 01 01:08:69
  TRACK 52 AUDIO
    TITLE "1Q_t_1520-1528_52"
    INDEX 01 01:10:31
  TRACK 53 AUDIO
    TITLE "1Q_t_1520-1528_53"
    INDEX 01 01:10:40
  TRACK 54 AUDIO
    TITLE "1Q_t_1520-1528_54"
    INDEX 01 01:11:52
  TRACK 55 AUDIO
    TITLE "1Q_t_1520-1528_55"
    INDEX 01 01:11:57
  TRACK 56 AUDIO
    TITLE "1Q_t_1520-1528_56"
    INDEX 01 01:15:61
